<?xml version="1.0" encoding="utf-8"?>
<!-- Generator: Adobe Illustrator 15.0.0, SVG Export Plug-In . SVG Version: 6.00 Build 0)  -->
<!DOCTYPE svg PUBLIC "-//W3C//DTD SVG 1.1//EN" "http://www.w3.org/Graphics/SVG/1.1/DTD/svg11.dtd">
<svg version="1.1" id="Calque_1" xmlns="http://www.w3.org/2000/svg" xmlns:xlink="http://www.w3.org/1999/xlink" x="0px" y="0px"
	 width="512px" height="512px" viewBox="0 0 512 512" enable-background="new 0 0 512 512" xml:space="preserve">
<path d="M256.282,4.142C117.404,4.142,4.423,117.125,4.423,256.003c0,138.875,112.981,251.855,251.859,251.855
	c138.878,0,251.859-112.98,251.859-251.855C508.142,117.125,395.16,4.142,256.282,4.142z M391.974,223.438v43.805h27.377v56.508
	c0,21.904-12.046,29.788-31.208,29.788s-31.208-7.884-31.208-29.788V158.167c0-21.901,12.046-30.224,31.208-30.224
	s31.208,8.323,31.208,30.224v32.855h56.939v-7.586c7.555,22.844,11.703,47.222,11.703,72.568c0,25.734-4.282,50.477-12.06,73.625
	c0.236-2.897,0.356-5.877,0.356-8.94v-97.25H391.974z M414.146,86.604c-8.406-1.592-17.58-2.466-27.646-2.466
	c-32.29,0-56.024,8.415-70.979,23.994c-12.275-46.36-51.995-72.191-117.949-72.191c-5.215,0-10.258,0.167-15.145,0.489
	c23.215-7.831,48.035-12.14,73.854-12.14C317.235,24.29,372.733,47.986,414.146,86.604z M158.386,137.831
	c0-30.145,15.074-41.6,41.448-41.6c26.375,0,41.441,11.456,41.441,41.6v17.484h55.671c-0.103,1.954-0.237,3.891-0.237,5.919v128.861
	C251.731,229.003,158.386,203.735,158.386,137.831z M24.571,256.003c0-57.455,21.067-110.052,55.819-150.586
	c-3.236,11.033-4.89,23.256-4.89,36.637c0,120.578,162.009,136.857,162.009,223.676c0,30.145-16.58,40.996-42.954,40.996
	c-26.371,0-42.947-10.852-42.947-40.996v-30.145h-78.37v25.926c0,17.604,2.894,33.219,8.58,46.72
	C46.214,367.479,24.571,314.235,24.571,256.003z M256.282,487.71c-37.431,0-72.784-8.975-104.108-24.805
	c13.261,3.099,28.13,4.714,44.643,4.714c74.635,0,116.285-32.474,122.685-89.933c15.056,13.103,37.477,20.096,66.999,20.096
	c29.346,0,51.663-6.922,66.716-19.876C412.305,443.753,339.345,487.71,256.282,487.71z"/>
</svg>
