<?xml version="1.0" encoding="utf-8"?><!DOCTYPE svg PUBLIC "-//W3C//DTD SVG 1.1//EN" "http://www.w3.org/Graphics/SVG/1.1/DTD/svg11.dtd"><svg xmlns="http://www.w3.org/2000/svg" xmlns:xlink="http://www.w3.org/1999/xlink"><symbol viewBox="0 0 512 512" id="icons-021-twitter" xmlns="http://www.w3.org/2000/svg"><path fill="#010002" d="M508.386 97.003a206.784 206.784 0 0 1-59.458 16.308c21.386-12.806 37.756-33.12 45.515-57.25-20.06 11.86-42.203 20.471-65.797 25.14-18.894-20.156-45.769-32.709-75.575-32.709-57.187 0-103.554 46.367-103.554 103.521 0 8.107.915 16.024 2.682 23.594-86.048-4.322-162.348-45.547-213.415-108.191-8.926 15.267-14.005 33.056-14.005 52.045 0 35.927 18.295 67.626 46.053 86.173a103.564 103.564 0 0 1-46.904-12.996v1.293c0 50.152 35.706 92.008 83.051 101.536a104.942 104.942 0 0 1-27.284 3.627 99.396 99.396 0 0 1-19.494-1.924c13.185 41.162 51.415 71.096 96.709 71.916-35.422 27.758-80.086 44.254-128.598 44.254-8.359 0-16.592-.504-24.697-1.419 45.831 29.429 100.241 46.589 158.72 46.589 190.484 0 294.605-157.776 294.605-294.605l-.348-13.406c20.346-14.51 37.946-32.741 51.794-53.496z"/></symbol><symbol id="icons-031-simpleArrowLeft" viewBox="-49 141 512 512" xml:space="preserve" xmlns="http://www.w3.org/2000/svg"><style>.bst0{fill:#282525}</style><path class="bst0" d="M60.2 385.3h319v23.4h-319z"/><path class="bst0" d="M137.9 301.2l15.9 17.1L69.2 397l84.6 78.7-15.9 17.1L34.8 397z"/></symbol><symbol id="icons-032-simpleArrowTop" viewBox="-49 141 512 512" xml:space="preserve" xmlns="http://www.w3.org/2000/svg"><style>.cst0{fill:#282525}</style><path class="cst0" d="M195.3 250.2h23.4v319h-23.4z"/><path class="cst0" d="M302.8 327.9l-17.1 15.9-78.7-84.6-78.7 84.6-17.1-15.9L207 224.8z"/></symbol><symbol id="icons-033-simpleArrowRight" viewBox="-49 141 512 512" xml:space="preserve" xmlns="http://www.w3.org/2000/svg"><style>.dst0{fill:#282525}</style><path class="dst0" d="M34.8 385.3h319v23.4h-319z"/><path class="dst0" d="M276.1 492.8l-15.9-17.1 84.6-78.7-84.6-78.7 15.9-17.1L379.2 397z"/></symbol><symbol id="icons-034-simpleArrowBottom" viewBox="-49 141 512 512" xml:space="preserve" xmlns="http://www.w3.org/2000/svg"><style>.est0{fill:#282525}</style><path class="est0" d="M195.2 219.1h23.4v319h-23.4z"/><path class="est0" d="M111.1 460.4l17.2-16 78.7 84.7 78.6-84.7 17.2 16L207 563.5z"/></symbol><symbol viewBox="0 0 512 512" id="icons-049-sg" xmlns="http://www.w3.org/2000/svg"><path d="M256.282 4.142C117.404 4.142 4.423 117.125 4.423 256.003c0 138.875 112.981 251.855 251.859 251.855 138.878 0 251.859-112.98 251.859-251.855C508.142 117.125 395.16 4.142 256.282 4.142zm135.692 219.296v43.805h27.377v56.508c0 21.904-12.046 29.788-31.208 29.788s-31.208-7.884-31.208-29.788V158.167c0-21.901 12.046-30.224 31.208-30.224s31.208 8.323 31.208 30.224v32.855h56.939v-7.586c7.555 22.844 11.703 47.222 11.703 72.568 0 25.734-4.282 50.477-12.06 73.625.236-2.897.356-5.877.356-8.94v-97.25h-84.315zm22.172-136.834c-8.406-1.592-17.58-2.466-27.646-2.466-32.29 0-56.024 8.415-70.979 23.994-12.275-46.36-51.995-72.191-117.949-72.191-5.215 0-10.258.167-15.145.489 23.215-7.831 48.035-12.14 73.854-12.14 60.954 0 116.452 23.696 157.865 62.314zm-255.76 51.227c0-30.145 15.074-41.6 41.448-41.6 26.375 0 41.441 11.456 41.441 41.6v17.484h55.671c-.103 1.954-.237 3.891-.237 5.919v128.861c-44.978-61.092-138.323-86.36-138.323-152.264zM24.571 256.003c0-57.455 21.067-110.052 55.819-150.586-3.236 11.033-4.89 23.256-4.89 36.637 0 120.578 162.009 136.857 162.009 223.676 0 30.145-16.58 40.996-42.954 40.996-26.371 0-42.947-10.852-42.947-40.996v-30.145h-78.37v25.926c0 17.604 2.894 33.219 8.58 46.72-35.604-40.752-57.247-93.996-57.247-152.228zM256.282 487.71c-37.431 0-72.784-8.975-104.108-24.805 13.261 3.099 28.13 4.714 44.643 4.714 74.635 0 116.285-32.474 122.685-89.933 15.056 13.103 37.477 20.096 66.999 20.096 29.346 0 51.663-6.922 66.716-19.876-40.912 65.847-113.872 109.804-196.935 109.804z"/></symbol><symbol viewBox="0 0 438.549 438.549" id="icons-074-github" xmlns="http://www.w3.org/2000/svg"><path d="M409.132 114.573c-19.608-33.596-46.205-60.194-79.798-79.8-33.598-19.607-70.277-29.408-110.063-29.408-39.781 0-76.472 9.804-110.063 29.408-33.596 19.605-60.192 46.204-79.8 79.8C9.803 148.168 0 184.854 0 224.63c0 47.78 13.94 90.745 41.827 128.906 27.884 38.164 63.906 64.572 108.063 79.227 5.14.954 8.945.283 11.419-1.996 2.475-2.282 3.711-5.14 3.711-8.562 0-.571-.049-5.708-.144-15.417a2549.81 2549.81 0 0 1-.144-25.406l-6.567 1.136c-4.187.767-9.469 1.092-15.846 1-6.374-.089-12.991-.757-19.842-1.999-6.854-1.231-13.229-4.086-19.13-8.559-5.898-4.473-10.085-10.328-12.56-17.556l-2.855-6.57c-1.903-4.374-4.899-9.233-8.992-14.559-4.093-5.331-8.232-8.945-12.419-10.848l-1.999-1.431c-1.332-.951-2.568-2.098-3.711-3.429-1.142-1.331-1.997-2.663-2.568-3.997-.572-1.335-.098-2.43 1.427-3.289 1.525-.859 4.281-1.276 8.28-1.276l5.708.853c3.807.763 8.516 3.042 14.133 6.851 5.614 3.806 10.229 8.754 13.846 14.842 4.38 7.806 9.657 13.754 15.846 17.847 6.184 4.093 12.419 6.136 18.699 6.136 6.28 0 11.704-.476 16.274-1.423 4.565-.952 8.848-2.383 12.847-4.285 1.713-12.758 6.377-22.559 13.988-29.41-10.848-1.14-20.601-2.857-29.264-5.14-8.658-2.286-17.605-5.996-26.835-11.14-9.235-5.137-16.896-11.516-22.985-19.126-6.09-7.614-11.088-17.61-14.987-29.979-3.901-12.374-5.852-26.648-5.852-42.826 0-23.035 7.52-42.637 22.557-58.817-7.044-17.318-6.379-36.732 1.997-58.24 5.52-1.715 13.706-.428 24.554 3.853 10.85 4.283 18.794 7.952 23.84 10.994 5.046 3.041 9.089 5.618 12.135 7.708 17.705-4.947 35.976-7.421 54.818-7.421s37.117 2.474 54.823 7.421l10.849-6.849c7.419-4.57 16.18-8.758 26.262-12.565 10.088-3.805 17.802-4.853 23.134-3.138 8.562 21.509 9.325 40.922 2.279 58.24 15.036 16.18 22.559 35.787 22.559 58.817 0 16.178-1.958 30.497-5.853 42.966-3.9 12.471-8.941 22.457-15.125 29.979-6.191 7.521-13.901 13.85-23.131 18.986-9.232 5.14-18.182 8.85-26.84 11.136-8.662 2.286-18.415 4.004-29.263 5.146 9.894 8.562 14.842 22.077 14.842 40.539v60.237c0 3.422 1.19 6.279 3.572 8.562 2.379 2.279 6.136 2.95 11.276 1.995 44.163-14.653 80.185-41.062 108.068-79.226 27.88-38.161 41.825-81.126 41.825-128.906-.01-39.771-9.818-76.454-29.414-110.049z"/></symbol></svg>